<svg width="24" height="24" viewBox="0 0 24 24" fill="none" xmlns="http://www.w3.org/2000/svg">
<path d="M17.475 5.625C17.325 5.4 17.1 5.25 16.8375 5.25H7.2C6.9375 5.25 6.675 5.4 6.5625 5.625L4.875 8.625C4.875 10.0875 6.0375 11.25 7.5 11.25C8.475 11.25 9.3 10.725 9.75 9.975C10.2 10.725 11.025 11.25 12 11.25C12.975 11.25 13.8 10.725 14.25 9.975C14.7 10.725 15.525 11.25 16.5 11.25C17.9625 11.25 19.125 10.0875 19.125 8.625L17.475 5.625ZM16.5 10.5C15.825 10.5 15.225 10.1625 14.8875 9.6C14.5875 9.1125 13.875 9.1125 13.6125 9.6C13.275 10.1625 12.675 10.5 12 10.5C11.325 10.5 10.725 10.1625 10.3875 9.6C10.0875 9.1125 9.375 9.1125 9.1125 9.6C8.775 10.1625 8.175 10.5 7.5 10.5C6.525 10.5 5.7375 9.75 5.625 8.8125L7.2 6H16.8L18.375 8.8125C18.2625 9.75 17.475 10.5 16.5 10.5Z" fill="#1B1B1B"/>
<path d="M17.25 18H14.25V12.75H9.75V18H6.75V11.925C6.4875 11.85 6.225 11.775 6 11.6625V18.75H10.5V13.5H13.5V18.75H18V11.6625C17.775 11.775 17.5125 11.8875 17.25 11.925V18Z" fill="#1B1B1B"/>
</svg>
