<svg width="226" height="140" viewBox="0 0 226 140" fill="none" xmlns="http://www.w3.org/2000/svg">
<path d="M114.589 17L102 102H163.526L176 17H114.589Z" fill="white"/>
<path d="M67.7135 95H31V138H55.2865H67.7135H92V108.209H67.7135V95Z" fill="white"/>
<path d="M87 139H93V119L87 124.746V139Z" fill="#E0DFE1"/>
<path d="M170.01 17L158.134 97.5336H103V102H163.647L176 17.8428L170.01 17Z" fill="#E0DFE1"/>
<path d="M60 138H67V104L60 108.797V138Z" fill="#E0DFE1"/>
<path d="M126.068 65.392L127.792 53.852H121.09L120.038 44.5911C119.413 44.842 126.603 40.3899 131.308 38.6266C136.091 36.8356 139.3 36 139.3 36C139.3 36 143.703 36.3246 145.775 36.3246C147.847 36.3246 152.351 36 152.351 36C152.351 36 154.221 36.5295 157.12 37.6505C157.863 37.9383 158.67 38.2629 159.532 38.6266C159.99 38.8223 160.471 39.0502 160.962 39.2988C164.902 41.3176 169.442 44.8236 168.965 44.5934L165.051 53.852H158.344L152.915 88H122.695L124.968 72.7538" fill="#42C163"/>
<path d="M9.37895 137H1.62105C1.19112 137 0.778802 137.158 0.474795 137.439C0.170789 137.721 0 138.102 0 138.5C0 138.898 0.170789 139.279 0.474795 139.561C0.778802 139.842 1.19112 140 1.62105 140H9.37895C9.80888 140 10.2212 139.842 10.5252 139.561C10.8292 139.279 11 138.898 11 138.5C11 138.102 10.8292 137.721 10.5252 137.439C10.2212 137.158 9.80888 137 9.37895 137V137Z" fill="#393B46"/>
<path d="M224.168 137H221.832C221.346 137 220.88 137.158 220.537 137.439C220.193 137.721 220 138.102 220 138.5C220 138.898 220.193 139.279 220.537 139.561C220.88 139.842 221.346 140 221.832 140H224.168C224.654 140 225.12 139.842 225.463 139.561C225.807 139.279 226 138.898 226 138.5C226 138.102 225.807 137.721 225.463 137.439C225.12 137.158 224.654 137 224.168 137V137Z" fill="#393B46"/>
<path d="M216.396 137H203.604C203.178 137 202.77 137.158 202.47 137.439C202.169 137.721 202 138.102 202 138.5C202 138.898 202.169 139.279 202.47 139.561C202.77 139.842 203.178 140 203.604 140H216.396C216.822 140 217.23 139.842 217.53 139.561C217.831 139.279 218 138.898 218 138.5C218 138.102 217.831 137.721 217.53 137.439C217.23 137.158 216.822 137 216.396 137V137Z" fill="#393B46"/>
<path d="M119.579 86H149.521C149.899 86.0005 150.265 85.8632 150.553 85.6129C150.841 85.3626 151.032 85.0157 151.092 84.6344L153.045 72.1445L156.257 51.607H161.548C161.86 51.6067 162.165 51.5127 162.426 51.3367C162.686 51.1606 162.889 50.9103 163.011 50.617L166.872 41.2895C166.983 41.0254 167.023 40.7359 166.988 40.4508C166.953 40.1656 166.845 39.895 166.674 39.6666C166.043 38.818 162.97 36.736 160.529 35.2104C160.17 35.0033 159.747 34.9464 159.348 35.0517C158.949 35.1571 158.606 35.4164 158.39 35.775C158.175 36.1337 158.105 36.5636 158.194 36.9743C158.283 37.385 158.525 37.7442 158.868 37.9764C161.226 39.4509 162.698 40.5036 163.488 41.1133L160.485 48.361H154.901C154.523 48.3612 154.157 48.499 153.869 48.7497C153.582 49.0005 153.391 49.3477 153.332 49.729L149.905 71.6321L148.165 82.761H121.423L123.403 69.2695C123.466 68.8437 123.36 68.41 123.109 68.0639C122.858 67.7178 122.483 67.4876 122.066 67.424C121.859 67.3924 121.649 67.4028 121.446 67.4543C121.243 67.5059 121.053 67.5977 120.885 67.7245C120.546 67.9806 120.32 68.3637 120.258 68.7896L118.016 84.1382C117.984 84.3684 118 84.603 118.064 84.8262C118.128 85.0494 118.238 85.2559 118.387 85.4318C118.536 85.6077 118.721 85.7489 118.928 85.8457C119.135 85.9425 119.36 85.9928 119.588 85.993L119.579 86Z" fill="#393B46"/>
<path d="M134.314 34.8316C134.441 37.0712 135.209 39.1642 136.52 40.7054C137.792 42.2 139.47 43.0334 141.242 43.0334C145.054 43.0334 148.905 39.376 150.32 34.7129C150.963 34.9294 151.805 35.2297 152.856 35.6441C153.252 35.7836 153.686 35.7618 154.067 35.5832C154.447 35.4047 154.744 35.0834 154.893 34.6876C155.043 34.2918 155.035 33.8526 154.869 33.4631C154.704 33.0736 154.395 32.7645 154.008 32.6013C152.543 32.006 151.046 31.4931 149.525 31.0648C149.362 31.0253 149.193 31.0112 149.025 31.0229C148.979 31.0229 144.531 31.3465 142.528 31.3465C140.526 31.3465 136.186 31.0043 136.142 31.0043C135.966 30.9913 135.789 31.0078 135.619 31.0532C135.494 31.0928 132.268 31.9355 127.428 33.7654C124.927 34.6966 121.915 36.3053 119.823 37.4787C115.174 40.0954 115.144 40.284 115.02 41.0732C114.979 41.3388 115.002 41.6105 115.089 41.8647L116.107 50.8744C116.153 51.2735 116.343 51.6417 116.64 51.9081C116.938 52.1745 117.323 52.3204 117.721 52.3178H122.588L121.134 62.1189C121.101 62.3313 121.11 62.5482 121.161 62.757C121.212 62.9658 121.303 63.1624 121.429 63.3356C121.555 63.5087 121.714 63.6549 121.896 63.7657C122.079 63.8765 122.281 63.9498 122.491 63.9814C122.571 63.9934 122.652 63.9996 122.733 64C123.121 63.999 123.494 63.8573 123.787 63.6009C124.079 63.3444 124.271 62.9903 124.326 62.6032L126.045 50.9302C126.078 50.6991 126.062 50.4635 125.997 50.2394C125.932 50.0153 125.82 49.8079 125.669 49.6313C125.517 49.4547 125.33 49.3129 125.12 49.2157C124.91 49.1185 124.682 49.068 124.45 49.0678H119.15L118.364 42.1162C120.249 40.9405 125.133 38.1142 128.548 36.8268C130.933 35.9212 132.927 35.2623 134.314 34.8316ZM142.533 34.5988C143.685 34.5988 145.529 34.5057 147.002 34.4149C145.861 37.3692 143.413 39.7695 141.24 39.7695C140.191 39.7695 139.424 39.1269 138.965 38.5868C138.076 37.5392 137.566 36.0073 137.525 34.3753C139.025 34.4685 141.21 34.5918 142.533 34.5918V34.5988Z" fill="#393B46"/>
<path d="M38.428 120H38.4065C37.505 120 36.1754 120.39 34.9534 122.195C34.3101 123.152 33.6597 124.764 34.2025 127.107C34.6497 129.02 36.2638 132 38.7293 132H38.9063C39.8628 131.945 40.7428 131.45 41.4674 130.565C42.6105 129.173 43.2011 126.978 42.9381 125.096C42.6368 122.975 41.0417 120 38.428 120ZM38.7221 128.609C38.3706 128.37 37.7106 127.413 37.4643 126.349C37.2467 125.414 37.3352 124.649 37.725 124.073C38.1147 123.496 38.3658 123.374 38.428 123.355C38.7508 123.46 39.4682 124.448 39.6237 125.56C39.803 126.904 39.1454 128.277 38.715 128.609H38.7221Z" fill="#393B46"/>
<path d="M195.403 136.81H188.638L168.149 76.4908L174.265 34.9382C174.302 34.7279 174.297 34.5123 174.249 34.3043C174.2 34.0962 174.111 33.8999 173.986 33.727C173.86 33.5541 173.701 33.4081 173.518 33.2976C173.335 33.1872 173.132 33.1145 172.92 33.084C172.709 33.0535 172.493 33.0657 172.286 33.12C172.079 33.1742 171.886 33.2693 171.716 33.3997C171.547 33.5302 171.406 33.6932 171.3 33.8792C171.195 34.0652 171.129 34.2703 171.105 34.4825L161.501 99.7214C161.468 99.9348 161.36 100.129 161.196 100.27C161.032 100.412 160.823 100.49 160.607 100.492H126.722C126.298 100.492 125.892 100.66 125.592 100.959C125.293 101.258 125.124 101.664 125.124 102.087C125.124 102.51 125.293 102.916 125.592 103.215C125.892 103.514 126.298 103.682 126.722 103.682H148.24L143.363 136.81H109.044L113.921 103.693H117.427C117.85 103.693 118.257 103.525 118.556 103.226C118.856 102.927 119.024 102.521 119.024 102.098C119.024 101.675 118.856 101.269 118.556 100.97C118.257 100.671 117.85 100.503 117.427 100.503H103.898C103.769 100.501 103.642 100.472 103.525 100.418C103.408 100.363 103.304 100.285 103.22 100.187C103.135 100.09 103.073 99.9753 103.036 99.8518C102.999 99.7283 102.989 99.5984 103.006 99.4707L114.816 19.2324C114.847 19.0188 114.952 18.823 115.114 18.6799C115.276 18.5368 115.483 18.4556 115.699 18.4508H172.41C172.539 18.4525 172.666 18.4816 172.783 18.536C172.9 18.5905 173.004 18.6691 173.089 18.7666C173.173 18.8642 173.236 18.9785 173.272 19.102C173.309 19.2254 173.319 19.3553 173.302 19.4831L172.538 24.6788C172.491 25.0909 172.606 25.5051 172.86 25.8335C173.114 26.1619 173.486 26.3788 173.897 26.438C174.308 26.4973 174.726 26.3944 175.062 26.1511C175.399 25.9077 175.627 25.5431 175.699 25.1346L176.463 19.9411C176.549 19.3597 176.508 18.7667 176.344 18.2024C176.18 17.638 175.896 17.1157 175.511 16.6708C175.127 16.226 174.65 15.8692 174.115 15.6246C173.58 15.38 172.999 15.2535 172.41 15.2535H145.533L147.453 2.21851C147.527 1.71022 147.397 1.1931 147.09 0.780902C146.783 0.368707 146.324 0.0952042 145.815 0.0205622C145.306 -0.0540797 144.788 0.0762531 144.376 0.382889C143.963 0.689525 143.689 1.14735 143.614 1.65564L141.613 15.2535H115.699C114.717 15.2586 113.769 15.6136 113.026 16.2544C112.283 16.8953 111.794 17.78 111.646 18.7493L99.8451 98.9967C99.7577 99.5788 99.7972 100.173 99.9608 100.738C100.124 101.304 100.408 101.827 100.793 102.273C101.178 102.719 101.654 103.077 102.19 103.322C102.726 103.567 103.309 103.694 103.898 103.693H109.766L104.893 136.81H93.3501C93.7144 136.055 93.9032 135.227 93.9024 134.389V133.528C93.9024 133.105 93.7341 132.699 93.4345 132.4C93.1349 132.101 92.7286 131.933 92.3049 131.933C91.8812 131.933 91.4749 132.101 91.1753 132.4C90.8757 132.699 90.7074 133.105 90.7074 133.528V134.389C90.7062 135.031 90.4502 135.647 89.9954 136.1C89.5407 136.554 88.9243 136.809 88.2815 136.81H68.0025C68.695 135.719 69.0623 134.455 69.0614 133.163V117.212C70.7046 115.065 71.6745 114.675 72.1514 114.668C72.6284 114.661 72.8612 114.837 73.4865 115.404C74.3035 116.14 75.4217 117.152 77.5487 117.227C79.1256 117.278 80.1298 116.526 80.7961 116.024C80.9947 115.876 81.1407 115.767 81.2526 115.694C81.6656 116.409 82.2316 117.973 82.6218 119.066C83.8724 122.524 84.9542 125.509 87.2934 125.509C88.5143 125.509 89.6211 124.62 90.68 123.289V127.163C90.68 127.586 90.8484 127.992 91.1479 128.291C91.4475 128.59 91.8539 128.758 92.2775 128.758C92.7012 128.758 93.1075 128.59 93.4071 128.291C93.7067 127.992 93.875 127.586 93.875 127.163V108.479C93.875 108.056 93.7067 107.65 93.4071 107.351C93.1075 107.052 92.7012 106.884 92.2775 106.884H88.5714C87.3116 101.303 84.0505 98.1102 79.3264 98.1102C73.5024 98.1102 71.4189 102.18 70.2527 106.884H69.0683V94.6236C69.0683 94.2005 68.9 93.7947 68.6004 93.4956C68.3008 93.1964 67.8945 93.0284 67.4708 93.0284H61.414C60.9051 90.5216 60.1292 88.3248 59.0953 86.5131C56.7402 82.3793 53.0728 80.1939 48.4857 80.1939C46.66 80.1939 45.5486 80.3101 43.8188 80.996C43.4432 81.1642 43.1471 81.4707 42.9923 81.8515C42.8375 82.2323 42.8358 82.6581 42.9876 83.0401C43.1395 83.4221 43.4331 83.7308 43.8074 83.9019C44.1816 84.0731 44.6075 84.0933 44.9963 83.9585C46.2401 83.4663 46.959 83.382 48.4857 83.382C54.433 83.382 57.03 88.1835 58.1369 93.0261H39.0765C39.5854 90.9615 40.2312 88.9538 41.208 87.3472C41.428 86.9846 41.4947 86.5495 41.3935 86.1377C41.2923 85.726 41.0314 85.3712 40.6683 85.1515C40.3051 84.9318 39.8694 84.8652 39.4571 84.9663C39.0447 85.0673 38.6895 85.3278 38.4694 85.6905C37.1572 87.8485 36.3813 90.4464 35.7811 93.0261H29.5007C29.077 93.0261 28.6707 93.1942 28.3711 93.4933C28.0715 93.7925 27.9032 94.1982 27.9032 94.6213V133.163C27.902 134.455 28.2702 135.72 28.9644 136.81H16.5975C16.1738 136.81 15.7675 136.978 15.4679 137.277C15.1683 137.576 15 137.982 15 138.405C15 138.828 15.1683 139.234 15.4679 139.533C15.7675 139.832 16.1738 140 16.5975 140H195.403C195.826 140 196.233 139.832 196.532 139.533C196.832 139.234 197 138.828 197 138.405C197 137.982 196.832 137.576 196.532 137.277C196.233 136.978 195.826 136.81 195.403 136.81V136.81ZM79.3264 101.294C82.8135 101.294 84.4863 103.971 85.276 106.877H73.5572C74.712 102.748 76.2958 101.294 79.3264 101.294ZM69.0683 110.074H85.8374C85.9286 111.02 85.956 111.897 85.956 112.57C85.956 112.993 86.1243 113.398 86.4239 113.697C86.7235 113.997 87.1299 114.165 87.5535 114.165C87.9772 114.165 88.3835 113.997 88.6831 113.697C88.9827 113.398 89.151 112.993 89.151 112.57C89.151 111.704 89.1176 110.872 89.0506 110.074H90.5431C90.5647 110.074 90.5861 110.078 90.606 110.087C90.6259 110.095 90.644 110.107 90.6593 110.122C90.6746 110.137 90.6867 110.156 90.6949 110.175C90.7032 110.195 90.7074 110.217 90.7074 110.238V117.366C90.6184 117.515 90.5203 117.688 90.4085 117.884C88.8224 120.634 87.9346 121.758 87.4417 122.166C86.8735 121.364 86.0952 119.215 85.6502 117.991C84.4772 114.748 83.6283 112.403 81.6497 112.385H81.6154C80.3443 112.385 79.4999 113.021 78.8769 113.486C78.3086 113.914 78.0713 114.064 77.6628 114.048C76.7043 114.014 76.2798 113.631 75.6362 113.05C74.89 112.367 73.8699 111.455 72.0921 111.489C71.0811 111.508 70.0861 111.884 69.066 112.652L69.0683 110.074ZM65.8733 133.17C65.8733 134.137 65.4886 135.065 64.8038 135.749C64.119 136.432 63.1903 136.816 62.2219 136.816H34.7496C33.7812 136.816 32.8524 136.432 32.1676 135.749C31.4829 135.065 31.0982 134.137 31.0982 133.17V111.749C31.2308 111.462 31.4328 111.212 31.6862 111.022C31.9395 110.831 32.2362 110.707 32.5496 110.66C32.8075 111.068 33.1658 111.799 33.4214 112.337C34.4848 114.529 35.6898 117.016 37.8989 117.016C39.3709 117.016 40.4344 115.974 41.0574 113.935C41.4522 112.64 41.6736 111.04 41.9086 109.347C42.1505 107.615 42.5933 104.432 43.2345 103.816C43.3966 103.878 43.6385 104.181 43.9488 104.591C44.5947 105.437 45.5669 106.715 47.4337 106.722H47.4633C49.1589 106.722 50.0695 105.526 50.6743 104.733C51.3407 103.86 51.6396 103.554 52.3768 103.554C52.7967 103.568 53.9172 105.047 54.4581 105.756C55.8753 107.624 57.6394 109.951 60.3391 109.99H60.4053C62.6167 109.99 63.9106 108.372 64.7687 107.299C64.9791 107.018 65.2078 106.751 65.4534 106.501C65.594 106.511 65.7337 106.533 65.871 106.565L65.8733 133.17ZM65.8733 103.345C65.6976 103.326 65.515 103.315 65.3301 103.313H65.2913C63.8696 103.313 62.9818 104.425 62.2675 105.318C61.5258 106.246 61.0283 106.811 60.3939 106.811H60.3779C59.2368 106.793 58.0478 105.216 56.9981 103.848C55.7041 102.144 54.3668 100.382 52.3699 100.382C49.9828 100.382 48.8189 101.907 48.1251 102.821C47.9312 103.074 47.6094 103.504 47.4793 103.55H47.4633C47.2351 103.55 47.048 103.388 46.5094 102.679C45.8887 101.863 44.953 100.628 43.2003 100.628H43.1478C41.5503 100.649 40.4093 101.768 39.7109 103.937C39.2545 105.368 39.0035 107.173 38.7593 108.919C38.5562 110.384 38.2344 112.704 37.8053 113.625C37.3147 113.039 36.6529 111.676 36.3037 110.958C35.3521 108.994 34.5989 107.44 33.022 107.44H32.9923C32.3494 107.442 31.7114 107.552 31.105 107.766V96.3714C31.105 96.3315 31.1209 96.2933 31.1491 96.2651C31.1774 96.2369 31.2157 96.221 31.2556 96.221H58.6777C58.8423 97.679 58.9246 99.1451 58.9242 100.612C58.9242 101.035 59.0925 101.441 59.3921 101.74C59.6917 102.04 60.098 102.208 60.5217 102.208C60.9454 102.208 61.3517 102.04 61.6513 101.74C61.9509 101.441 62.1192 101.035 62.1192 100.612C62.1195 99.1456 62.0433 97.6799 61.891 96.221H65.7204C65.7603 96.221 65.7986 96.2369 65.8269 96.2651C65.8551 96.2933 65.871 96.3315 65.871 96.3714L65.8733 103.345ZM147.517 136.81L152.391 103.693H160.607C161.589 103.689 162.538 103.335 163.281 102.694C164.025 102.053 164.515 101.167 164.662 100.198L166.837 85.4125L184.3 136.81H147.517Z" fill="#393B46"/>
</svg>
